<svg xmlns="http://www.w3.org/2000/svg" viewBox="0 0 560 560"><defs><linearGradient id="a" x1="0" y1="0" x2="1" y2="1"><stop stop-color="#f7dce5"/><stop offset="1" stop-color="#fff1e9"/></linearGradient><linearGradient id="b" x1="0" y1="0" x2="1" y2="1"><stop stop-color="#8c2450"/><stop offset="1" stop-color="#4f102a"/></linearGradient></defs><circle cx="280" cy="280" r="245" fill="url(#a)"/><circle cx="280" cy="187" r="82" fill="#e5a58f"/><path fill="#3c202a" d="M196 180c0-71 44-118 103-118 65 0 102 55 99 125-29-23-51-52-61-84-32 48-80 75-141 77Z"/><path fill="url(#b)" d="M125 513c13-123 69-207 155-207 89 0 145 82 157 207Z"/><path fill="#fff" d="m240 309 40 49 40-49 35 20-28 184h-94l-28-184Z"/><path fill="none" stroke="#c9a64a" stroke-width="8" stroke-linecap="round" d="M190 408c23-55 51-82 90-82 41 0 71 30 91 88"/><circle cx="190" cy="411" r="18" fill="#6f1736"/><circle cx="372" cy="416" r="18" fill="#6f1736"/><path fill="none" stroke="#6f1736" stroke-width="8" stroke-linecap="round" d="M280 358v72"/></svg>